<svg xmlns="http://www.w3.org/2000/svg" viewBox="20 10 160 220" width="480" height="660">
  <defs>
    <style>@import url('https://fonts.googleapis.com/css2?family=Marcellus&amp;display=swap');</style>
    <linearGradient id="g" x1="0" y1="0" x2="1" y2="1"><stop offset="0" stop-color="#5A4DD0"/><stop offset=".55" stop-color="#3A2CB0"/><stop offset="1" stop-color="#2A1F8A"/></linearGradient>
  </defs>
  <g fill="url(#g)"><path d="M114.87 26.36 L113.34 26.13 L111.81 25.93 L110.29 25.75 L108.76 25.60 L107.24 25.47 L105.71 25.36 L104.19 25.27 L102.66 25.20 L101.14 25.16 L99.61 25.14 L98.09 25.14 L96.56 25.16 L95.03 25.21 L93.50 25.28 L91.97 25.37 L90.44 25.49 L88.90 25.64 L87.37 25.81 L85.83 26.01 L84.29 26.24 L82.75 26.49 L81.21 26.78 L79.68 27.10 L78.14 27.44 L76.60 27.83 L75.07 28.24 L73.54 28.69 L72.02 29.17 L70.50 29.70 L68.98 30.25 L67.48 30.85 L65.98 31.48 L64.50 32.16 L63.03 32.87 L61.57 33.63 L60.12 34.42 L58.69 35.26 L57.29 36.13 L55.90 37.05 L54.53 38.01 L53.19 39.01 L51.87 40.05 L50.58 41.13 L49.32 42.25 L48.08 43.41 L46.89 44.61 L45.72 45.85 L44.59 47.12 L43.50 48.44 L42.45 49.78 L41.43 51.16 L40.46 52.58 L39.53 54.02 L38.65 55.49 L37.81 57.00 L37.01 58.53 L36.27 60.08 L35.57 61.66 L34.92 63.27 L34.32 64.89 L33.77 66.53 L33.27 68.19 L32.82 69.86 L32.42 71.55 L32.07 73.24 L31.78 74.95 L31.54 76.67 L31.34 78.39 L31.20 80.11 L31.12 81.84 L31.08 83.57 L31.09 85.30 L31.15 87.03 L31.26 88.75 L31.42 90.47 L31.63 92.18 L31.89 93.88 L32.19 95.57 L32.54 97.26 L32.94 98.92 L33.38 100.58 L33.87 102.22 L34.40 103.85 L34.97 105.45 L35.58 107.05 L36.22 108.62 L36.90 110.17 L37.62 111.71 L38.37 113.23 L39.16 114.72 L39.98 116.20 L40.83 117.65 L41.72 119.08 L42.63 120.49 L43.58 121.88 L44.56 123.24 L45.57 124.58 L46.61 125.89 L47.68 127.17 L48.78 128.43 L49.90 129.66 L51.06 130.86 L52.25 132.03 L53.46 133.16 L54.70 134.27 L55.97 135.34 L57.26 136.38 L58.58 137.38 L59.93 138.35 L61.29 139.28 L62.68 140.17 L64.09 141.03 L65.52 141.85 L66.96 142.64 L68.43 143.38 L69.92 144.08 L71.42 144.75 L72.93 145.37 L74.46 145.95 L76.01 146.49 L77.56 146.99 L79.13 147.44 L80.70 147.85 L82.29 148.22 L83.88 148.55 L85.47 148.83 L87.07 149.07 L88.68 149.27 L90.28 149.43 L91.89 149.54 L93.50 149.61 L95.10 149.63 L96.71 149.62 L98.31 149.56 L99.90 149.46 L101.49 149.32 L103.07 149.14 L104.64 148.92 L106.20 148.66 L107.76 148.37 L109.30 148.04 L110.83 147.67 L112.35 147.26 L113.86 146.82 L115.35 146.35 L116.83 145.84 L118.29 145.30 L119.74 144.73 L121.18 144.13 L122.60 143.50 L124.00 142.84 L125.38 142.15 L126.75 141.43 L128.11 140.69 L129.44 139.92 L130.76 139.13 L132.07 138.31 L133.35 137.47 L134.63 136.60 L135.88 135.72 L137.12 134.80 L138.34 133.87 L139.54 132.92 L140.73 131.94 L141.91 130.94 L143.06 129.92 L144.21 128.88 L145.33 127.82 L146.44 126.73 L147.53 125.63 L148.61 124.50 L149.66 123.35 L150.71 122.18 L151.73 120.99 L152.74 119.77 L153.73 118.54 L154.69 117.28 L155.64 115.99 L156.56 114.68 L157.46 113.35 L158.33 111.99 L159.17 110.61 L159.98 109.20 L160.77 107.77 L161.52 106.31 L162.24 104.84 L162.93 103.33 L163.59 101.81 L164.20 100.27 L164.78 98.70 L165.32 97.11 L165.82 95.51 L166.28 93.88 L166.69 92.24 L167.07 90.58 L167.42 88.91 L167.73 87.23 L168.00 85.53 L168.20 83.81 L168.27 82.10 L168.23 80.38 L168.08 78.67 L167.83 76.97 L167.49 75.29 L167.06 73.63 L166.55 71.99 L165.97 70.37 L165.32 68.79 L164.62 67.23 L163.86 65.70 L163.07 64.19 L162.24 62.72 L161.37 61.27 L160.49 59.85 L159.59 58.44 L158.68 57.06 L157.76 55.69 L156.85 54.32 L155.94 52.97 L155.04 51.61 L140.62 60.61 L141.31 61.60 L142.04 62.58 L142.80 63.54 L143.60 64.50 L144.41 65.46 L145.25 66.44 L146.09 67.43 L146.93 68.44 L147.77 69.49 L148.58 70.55 L149.38 71.65 L150.14 72.79 L150.85 73.95 L151.51 75.15 L152.11 76.38 L152.64 77.65 L153.09 78.93 L153.45 80.25 L153.70 81.58 L153.85 82.92 L153.88 84.27 L153.78 85.62 L153.60 86.97 L153.36 88.30 L153.08 89.63 L152.75 90.94 L152.37 92.23 L151.96 93.50 L151.52 94.76 L151.04 96.01 L150.54 97.23 L150.00 98.43 L149.44 99.62 L148.84 100.78 L148.23 101.92 L147.59 103.05 L146.93 104.15 L146.24 105.23 L145.54 106.29 L144.81 107.33 L144.07 108.35 L143.31 109.35 L142.54 110.33 L141.75 111.28 L140.94 112.22 L140.12 113.14 L139.28 114.03 L138.43 114.90 L137.56 115.75 L136.67 116.57 L135.77 117.38 L134.86 118.16 L133.94 118.92 L133.00 119.66 L132.06 120.38 L131.10 121.07 L130.13 121.75 L129.15 122.40 L128.16 123.03 L127.16 123.64 L126.16 124.23 L125.14 124.79 L124.11 125.33 L123.08 125.85 L122.03 126.35 L120.98 126.83 L119.92 127.28 L118.86 127.71 L117.78 128.11 L116.70 128.49 L115.61 128.85 L114.52 129.18 L113.42 129.49 L112.31 129.77 L111.20 130.02 L110.08 130.25 L108.96 130.45 L107.84 130.63 L106.71 130.77 L105.58 130.89 L104.45 130.98 L103.32 131.05 L102.19 131.08 L101.06 131.09 L99.93 131.07 L98.80 131.02 L97.67 130.94 L96.55 130.84 L95.43 130.70 L94.32 130.54 L93.21 130.35 L92.10 130.13 L91.01 129.88 L89.92 129.60 L88.84 129.30 L87.77 128.97 L86.70 128.62 L85.65 128.23 L84.61 127.83 L83.58 127.40 L82.56 126.94 L81.55 126.46 L80.56 125.96 L79.58 125.43 L78.61 124.89 L77.65 124.32 L76.71 123.73 L75.78 123.12 L74.86 122.49 L73.96 121.84 L73.07 121.17 L72.20 120.49 L71.34 119.78 L70.50 119.06 L69.66 118.33 L68.85 117.57 L68.04 116.80 L67.25 116.02 L66.48 115.22 L65.71 114.40 L64.97 113.57 L64.23 112.72 L63.52 111.86 L62.82 110.97 L62.15 110.07 L61.49 109.16 L60.85 108.22 L60.23 107.28 L59.63 106.31 L59.05 105.33 L58.50 104.34 L57.96 103.33 L57.45 102.30 L56.96 101.27 L56.49 100.21 L56.04 99.15 L55.62 98.07 L55.22 96.98 L54.83 95.89 L54.47 94.78 L54.12 93.65 L53.80 92.52 L53.50 91.38 L53.22 90.23 L52.96 89.06 L52.73 87.89 L52.53 86.71 L52.35 85.52 L52.21 84.32 L52.09 83.11 L52.00 81.89 L51.94 80.67 L51.91 79.44 L51.92 78.21 L51.96 76.98 L52.03 75.74 L52.14 74.50 L52.28 73.26 L52.46 72.02 L52.67 70.79 L52.93 69.56 L53.22 68.33 L53.54 67.11 L53.90 65.90 L54.31 64.69 L54.74 63.50 L55.22 62.32 L55.73 61.15 L56.28 59.99 L56.86 58.85 L57.48 57.73 L58.14 56.63 L58.82 55.54 L59.55 54.48 L60.30 53.43 L61.09 52.41 L61.91 51.41 L62.75 50.44 L63.63 49.49 L64.54 48.57 L65.47 47.67 L66.42 46.80 L67.41 45.96 L68.41 45.14 L69.44 44.35 L70.49 43.59 L71.56 42.86 L72.64 42.16 L73.75 41.49 L74.87 40.84 L76.01 40.22 L77.17 39.63 L78.34 39.07 L79.52 38.54 L80.71 38.04 L81.92 37.56 L83.13 37.11 L84.36 36.69 L85.59 36.30 L86.84 35.93 L88.09 35.59 L89.35 35.27 L90.62 34.98 L91.89 34.72 L93.18 34.48 L94.46 34.27 L95.76 34.09 L97.06 33.93 L98.36 33.80 L99.67 33.69 L100.98 33.61 L102.30 33.55 L103.62 33.53 L104.94 33.53 L106.27 33.55 L107.60 33.61 L108.93 33.69 L110.27 33.81 L111.60 33.95 L112.94 34.12 Z"/><circle cx="113.90" cy="30.24" r="4.00"/><circle cx="147.83" cy="56.11" r="8.50"/></g>
  <text x="100" y="206" text-anchor="middle" font-family="Marcellus, Georgia, serif" font-size="44" letter-spacing="9" dx="4.5" fill="#3A2CB0">BOU</text>
</svg>
